<svg viewBox="0 0 505 168" xmlns="http://www.w3.org/2000/svg">
  <defs>
    <linearGradient id="bg" x1="0" y1="0" x2="0.3" y2="1">
      <stop offset="0" stop-color="#3C2618"/>
      <stop offset="1" stop-color="#23140C"/>
    </linearGradient>
    <linearGradient id="fur" x1="0" y1="0" x2="0" y2="1">
      <stop offset="0" stop-color="#F7E9D2"/>
      <stop offset="1" stop-color="#E6CBA4"/>
    </linearGradient>
    <linearGradient id="muzzle" x1="0" y1="0" x2="0" y2="1">
      <stop offset="0" stop-color="#EFD8B6"/>
      <stop offset="1" stop-color="#F4E3C8"/>
    </linearGradient>
    <radialGradient id="eye" cx="0.5" cy="0.38" r="0.75">
      <stop offset="0" stop-color="#FFD884"/>
      <stop offset="0.55" stop-color="#EAA53F"/>
      <stop offset="1" stop-color="#C57C20"/>
    </radialGradient>
  </defs>

  <g transform="translate(26,26) scale(0.46875)">
    <rect x="0" y="0" width="256" height="256" rx="60" fill="url(#bg)"/>
  <path fill="url(#fur)" d="M70 54 C63 64 60 96 60 124 C60 158 66 184 84 200 C100 214 116 220 128 220 C140 220 156 214 172 200 C190 184 196 158 196 124 C196 96 193 64 186 54 C178 64 168 80 158 88 C148 82 138 80 128 80 C118 80 108 82 98 88 C88 80 78 64 70 54 Z"/>
  <path fill="#3C2618" d="M73 62 C70 74 70 86 74 94 C82 86 88 78 92 70 C86 66 79 63 73 62 Z"/>
  <path fill="#3C2618" d="M183 62 C186 74 186 86 182 94 C174 86 168 78 164 70 C170 66 177 63 183 62 Z"/>
  <path fill="#CBA77C" opacity="0.6" d="M128 86 C124 86 122 96 123 108 L133 108 C134 96 132 86 128 86 Z"/>
  <path fill="url(#muzzle)" d="M96 156 C108 150 118 148 128 148 C138 148 148 150 160 156 C158 184 144 206 128 206 C112 206 98 184 96 156 Z"/>
  <path fill="#33200F" d="M70 116 C92 102 110 100 128 100 C146 100 164 102 186 116 C184 138 175 152 159 158 C148 162 139 154 128 154 C117 154 108 162 97 158 C81 152 72 138 70 116 Z"/>
  <circle cx="103" cy="126" r="17" fill="url(#eye)"/>
  <circle cx="153" cy="126" r="17" fill="url(#eye)"/>
  <ellipse cx="103" cy="128" rx="8" ry="8.5" fill="#22100A"/>
  <ellipse cx="153" cy="128" rx="8" ry="8.5" fill="#22100A"/>
  <circle cx="108" cy="122" r="3.4" fill="#FCF4E8"/>
  <circle cx="158" cy="122" r="3.4" fill="#FCF4E8"/>
  <path fill="#33200F" d="M128 170 L139 181 C135 189 131 191 128 191 C125 191 121 189 117 181 Z"/>
  </g>
  <g fill="#2C1B10" transform="translate(176,84)"><path transform="translate(0.000,0) scale(0.09600,-0.09600)" d="M189 740V0H75V740Z"/>
<path transform="translate(25.344,0) scale(0.09600,-0.09600)" d="M574 551V0H460V65Q433 31 389.5 11.5Q346 -8 297 -8Q232 -8 180.5 19.0Q129 46 99.5 99.0Q70 152 70 227V551H183V244Q183 170 220.0 130.5Q257 91 321 91Q385 91 422.5 130.5Q460 170 460 244V551Z"/>
<path transform="translate(87.648,0) scale(0.09600,-0.09600)" d="M815 551 644 0H524L413 407L302 0H182L10 551H126L241 108L358 551H477L589 110L703 551Z"/>
<path transform="translate(166.848,0) scale(0.09600,-0.09600)" d="M297 560Q362 560 410.5 534.5Q459 509 488 471V551H603V0H488V82Q459 43 409.0 17.0Q359 -9 295 -9Q224 -9 165.0 27.5Q106 64 71.5 129.5Q37 195 37 278Q37 361 71.5 425.0Q106 489 165.5 524.5Q225 560 297 560ZM321 461Q277 461 239.0 439.5Q201 418 177.5 376.5Q154 335 154 278Q154 221 177.5 178.0Q201 135 239.5 112.5Q278 90 321 90Q365 90 403.0 112.0Q441 134 464.5 176.5Q488 219 488 276Q488 333 464.5 375.0Q441 417 403.0 439.0Q365 461 321 461Z"/>
<path transform="translate(231.936,0) scale(0.09600,-0.09600)" d="M293 275 547 0H393L189 237V0H75V740H189V310L389 551H547Z"/></g>
  <g fill="#9C7A57" transform="translate(178,120)"><path transform="translate(0.000,0) scale(0.01025,-0.01025)" d="M639 406Q639 282 684.5 219.0Q730 156 819 156H1034V0H801Q636 0 545.5 106.0Q455 212 455 406V1423H160V1567H639Z"/>
<path transform="translate(12.643,0) scale(0.01025,-0.01025)" d="M639 406Q639 282 684.5 219.0Q730 156 819 156H1034V0H801Q636 0 545.5 106.0Q455 212 455 406V1423H160V1567H639Z"/>
<path transform="translate(25.286,0) scale(0.01025,-0.01025)" d="M676 1006Q710 1078 762.5 1112.5Q815 1147 889 1147Q1024 1147 1079.5 1042.5Q1135 938 1135 649V0H967V641Q967 878 940.5 935.5Q914 993 844 993Q764 993 734.5 931.5Q705 870 705 641V0H537V641Q537 881 508.5 937.0Q480 993 406 993Q333 993 304.5 931.5Q276 870 276 641V0H109V1120H276V1024Q309 1084 358.5 1115.5Q408 1147 471 1147Q547 1147 597.5 1112.0Q648 1077 676 1006Z"/>
<path transform="translate(50.572,0) scale(0.01025,-0.01025)" d="M375 141V-426H190V1120H375V977Q421 1060 497.5 1103.5Q574 1147 674 1147Q877 1147 992.5 990.0Q1108 833 1108 555Q1108 282 992.0 126.5Q876 -29 674 -29Q572 -29 495.5 14.5Q419 58 375 141ZM915 559Q915 773 847.5 882.0Q780 991 647 991Q513 991 444.0 881.5Q375 772 375 559Q375 347 444.0 237.0Q513 127 647 127Q780 127 847.5 236.0Q915 345 915 559Z"/>
<path transform="translate(63.215,0) scale(0.01025,-0.01025)" d="M1155 889Q1096 935 1035.0 956.0Q974 977 901 977Q729 977 638.0 869.0Q547 761 547 557V0H362V1120H547V901Q593 1020 688.5 1083.5Q784 1147 915 1147Q983 1147 1042.0 1130.0Q1101 1113 1155 1077Z"/>
<path transform="translate(75.858,0) scale(0.01025,-0.01025)" d="M616 991Q476 991 404.0 882.0Q332 773 332 559Q332 346 404.0 236.5Q476 127 616 127Q757 127 829.0 236.5Q901 346 901 559Q901 773 829.0 882.0Q757 991 616 991ZM616 1147Q849 1147 972.5 996.0Q1096 845 1096 559Q1096 272 973.0 121.5Q850 -29 616 -29Q383 -29 260.0 121.5Q137 272 137 559Q137 845 260.0 996.0Q383 1147 616 1147Z"/>
<path transform="translate(88.501,0) scale(0.01025,-0.01025)" d="M1118 1120 717 584 1157 0H944L616 449L289 0H76L516 584L115 1120H319L616 715L911 1120Z"/>
<path transform="translate(101.145,0) scale(0.01025,-0.01025)" d="M858 360Q812 243 741 52Q642 -212 608 -270Q562 -348 493.0 -387.0Q424 -426 332 -426H184V-272H293Q374 -272 420.0 -225.0Q466 -178 537 18L104 1120H299L631 244L958 1120H1153Z"/>
<path transform="translate(139.074,0) scale(0.01025,-0.01025)" d="M489 864H741V559H489Z"/>
<path transform="translate(177.003,0) scale(0.01025,-0.01025)" d="M639 406Q639 282 684.5 219.0Q730 156 819 156H1034V0H801Q636 0 545.5 106.0Q455 212 455 406V1423H160V1567H639Z"/>
<path transform="translate(189.646,0) scale(0.01025,-0.01025)" d="M616 991Q476 991 404.0 882.0Q332 773 332 559Q332 346 404.0 236.5Q476 127 616 127Q757 127 829.0 236.5Q901 346 901 559Q901 773 829.0 882.0Q757 991 616 991ZM616 1147Q849 1147 972.5 996.0Q1096 845 1096 559Q1096 272 973.0 121.5Q850 -29 616 -29Q383 -29 260.0 121.5Q137 272 137 559Q137 845 260.0 996.0Q383 1147 616 1147Z"/>
<path transform="translate(202.289,0) scale(0.01025,-0.01025)" d="M858 569Q858 776 790.5 883.5Q723 991 594 991Q459 991 388.0 883.5Q317 776 317 569Q317 362 388.5 253.5Q460 145 596 145Q723 145 790.5 254.0Q858 363 858 569ZM1042 72Q1042 -180 923.0 -310.0Q804 -440 573 -440Q497 -440 414.0 -426.0Q331 -412 248 -385V-203Q346 -249 426.0 -271.0Q506 -293 573 -293Q722 -293 790.0 -212.0Q858 -131 858 45V53V178Q814 84 738.0 38.0Q662 -8 553 -8Q357 -8 240.0 149.0Q123 306 123 569Q123 833 240.0 990.0Q357 1147 553 1147Q661 1147 736.0 1104.0Q811 1061 858 971V1116H1042Z"/>
<path transform="translate(227.575,0) scale(0.01025,-0.01025)" d="M100 1120H291L616 180L942 1120H1133L735 0H498Z"/>
<path transform="translate(240.218,0) scale(0.01025,-0.01025)" d="M256 1120H727V143H1092V0H178V143H543V977H256ZM543 1556H727V1323H543Z"/>
<path transform="translate(252.861,0) scale(0.01025,-0.01025)" d="M1112 606V516H315V510Q315 327 410.5 227.0Q506 127 680 127Q768 127 864.0 155.0Q960 183 1069 240V57Q964 14 866.5 -7.5Q769 -29 678 -29Q417 -29 270.0 127.5Q123 284 123 559Q123 827 267.0 987.0Q411 1147 651 1147Q865 1147 988.5 1002.0Q1112 857 1112 606ZM928 660Q924 822 851.5 906.5Q779 991 643 991Q510 991 424.0 903.0Q338 815 322 659Z"/>
<path transform="translate(265.504,0) scale(0.01025,-0.01025)" d="M0 1120H182L377 215L537 793H694L856 215L1051 1120H1233L971 0H795L616 614L438 0H262Z"/>
<path transform="translate(278.147,0) scale(0.01025,-0.01025)" d="M1112 606V516H315V510Q315 327 410.5 227.0Q506 127 680 127Q768 127 864.0 155.0Q960 183 1069 240V57Q964 14 866.5 -7.5Q769 -29 678 -29Q417 -29 270.0 127.5Q123 284 123 559Q123 827 267.0 987.0Q411 1147 651 1147Q865 1147 988.5 1002.0Q1112 857 1112 606ZM928 660Q924 822 851.5 906.5Q779 991 643 991Q510 991 424.0 903.0Q338 815 322 659Z"/>
<path transform="translate(290.791,0) scale(0.01025,-0.01025)" d="M1155 889Q1096 935 1035.0 956.0Q974 977 901 977Q729 977 638.0 869.0Q547 761 547 557V0H362V1120H547V901Q593 1020 688.5 1083.5Q784 1147 915 1147Q983 1147 1042.0 1130.0Q1101 1113 1155 1077Z"/></g>
</svg>