<svg viewBox="0 0 256 256" xmlns="http://www.w3.org/2000/svg">
  <path fill="#2C1B10" d="M70 54 C63 64 60 96 60 124 C60 158 66 184 84 200 C100 214 116 220 128 220 C140 220 156 214 172 200 C190 184 196 158 196 124 C196 96 193 64 186 54 C178 64 168 80 158 88 C148 82 138 80 128 80 C118 80 108 82 98 88 C88 80 78 64 70 54 Z"/>
  <path fill="#FFFFFF" d="M77 66 C74 76 74 86 78 93 C84 86 89 79 92 72 C87 68 82 66 77 66 Z"/>
  <path fill="#FFFFFF" d="M179 66 C182 76 182 86 178 93 C172 86 167 79 164 72 C169 68 174 66 179 66 Z"/>
  <circle cx="103" cy="126" r="13" fill="#FFFFFF"/>
  <circle cx="153" cy="126" r="13" fill="#FFFFFF"/>
  <path fill="#FFFFFF" d="M128 168 L137 178 C133.5 185 130.5 187 128 187 C125.5 187 122.5 185 119 178 Z"/>
</svg>